<svg id="visual" viewBox="0 0 900 600" width="900" height="600" xmlns="http://www.w3.org/2000/svg" xmlns:xlink="http://www.w3.org/1999/xlink" version="1.1"><rect x="0" y="0" width="900" height="600" fill="#001220"></rect><defs><linearGradient id="grad1_0" x1="33.3%" y1="0%" x2="100%" y2="100%"><stop offset="20%" stop-color="#001220" stop-opacity="1"></stop><stop offset="80%" stop-color="#001220" stop-opacity="1"></stop></linearGradient></defs><defs><linearGradient id="grad2_0" x1="0%" y1="0%" x2="66.7%" y2="100%"><stop offset="20%" stop-color="#001220" stop-opacity="1"></stop><stop offset="80%" stop-color="#001220" stop-opacity="1"></stop></linearGradient></defs><g transform="translate(900, 0)"><path d="M0 486.7C-44.3 435.4 -88.6 384 -152.7 368.6C-216.7 353.2 -300.5 373.8 -344.2 344.2C-387.8 314.6 -391.3 234.9 -408.4 169.1C-425.4 103.4 -456.1 51.7 -486.7 0L0 0Z" fill="#8ee4af"></path></g><g transform="translate(0, 600)"><path d="M0 -486.7C70.4 -486.3 140.9 -485.9 186.3 -449.7C231.7 -413.5 252 -341.6 294.9 -294.9C337.7 -248.2 403.1 -226.7 438.8 -181.8C474.6 -136.8 480.7 -68.4 486.7 0L0 0Z" fill="#8ee4af"></path></g></svg>