<svg id="visual" viewBox="0 0 900 600" width="900" height="600" xmlns="http://www.w3.org/2000/svg" xmlns:xlink="http://www.w3.org/1999/xlink" version="1.1"><rect x="0" y="0" width="900" height="600" fill="#001220"></rect><defs><linearGradient id="grad1_0" x1="33.3%" y1="0%" x2="100%" y2="100%"><stop offset="20%" stop-color="#001220" stop-opacity="1"></stop><stop offset="80%" stop-color="#001220" stop-opacity="1"></stop></linearGradient></defs><defs><linearGradient id="grad2_0" x1="0%" y1="0%" x2="66.7%" y2="100%"><stop offset="20%" stop-color="#001220" stop-opacity="1"></stop><stop offset="80%" stop-color="#001220" stop-opacity="1"></stop></linearGradient></defs><g transform="translate(900, 0)"><path d="M0 486.7C-51.7 454.8 -103.4 422.9 -168 405.6C-232.6 388.2 -310.2 385.4 -344.2 344.2C-378.2 303 -368.7 223.3 -385.3 159.6C-401.8 95.8 -444.3 47.9 -486.7 0L0 0Z" fill="#8ee4af"></path></g><g transform="translate(0, 600)"><path d="M0 -486.7C60.1 -464.2 120.1 -441.6 171.1 -413C222 -384.3 263.9 -349.6 313.2 -313.2C362.6 -276.9 419.5 -238.8 449.7 -186.3C479.9 -133.8 483.3 -66.9 486.7 0L0 0Z" fill="#8ee4af"></path></g></svg>