<svg id="visual" viewBox="0 0 900 600" width="900" height="600" xmlns="http://www.w3.org/2000/svg" xmlns:xlink="http://www.w3.org/1999/xlink" version="1.1"><rect x="0" y="0" width="900" height="600" fill="#8ee"></rect><defs><linearGradient id="grad1_0" x1="33.3%" y1="0%" x2="100%" y2="100%"><stop offset="20%" stop-color="#88eeee" stop-opacity="1"></stop><stop offset="80%" stop-color="#88eeee" stop-opacity="1"></stop></linearGradient></defs><defs><linearGradient id="grad2_0" x1="0%" y1="0%" x2="66.7%" y2="100%"><stop offset="20%" stop-color="#88eeee" stop-opacity="1"></stop><stop offset="80%" stop-color="#88eeee" stop-opacity="1"></stop></linearGradient></defs><g transform="translate(900, 0)"><path d="M0 486.7C-66.6 483.3 -133.1 479.8 -186.3 449.7C-239.4 419.6 -279.1 362.7 -311.8 311.8C-344.5 260.9 -370.2 215.9 -398.2 164.9C-426.2 113.9 -456.5 57 -486.7 0L0 0Z" fill="#379683"></path></g><g transform="translate(0, 600)"><path d="M0 -486.7C57.5 -455.2 114.9 -423.7 162.6 -392.6C210.4 -361.6 248.3 -331.1 299.8 -299.8C351.3 -268.5 416.3 -236.4 449.7 -186.3C483.1 -136.2 484.9 -68.1 486.7 0L0 0Z" fill="#379683"></path></g></svg>