<svg id="visual" viewBox="0 0 900 600" width="900" height="600" xmlns="http://www.w3.org/2000/svg" xmlns:xlink="http://www.w3.org/1999/xlink" version="1.1"><rect x="0" y="0" width="900" height="600" fill="#001220"></rect><defs><linearGradient id="grad1_0" x1="33.3%" y1="0%" x2="100%" y2="100%"><stop offset="20%" stop-color="#001220" stop-opacity="1"></stop><stop offset="80%" stop-color="#001220" stop-opacity="1"></stop></linearGradient></defs><defs><linearGradient id="grad2_0" x1="0%" y1="0%" x2="66.7%" y2="100%"><stop offset="20%" stop-color="#001220" stop-opacity="1"></stop><stop offset="80%" stop-color="#001220" stop-opacity="1"></stop></linearGradient></defs><g transform="translate(900, 0)"><path d="M0 486.7C-61.1 465.2 -122.1 443.6 -171.1 413C-220 382.3 -256.8 342.6 -306.2 306.2C-355.6 269.8 -417.5 236.7 -449.7 186.3C-481.9 135.8 -484.3 67.9 -486.7 0L0 0Z" fill="#8ee4af"></path></g><g transform="translate(0, 600)"><path d="M0 -486.7C57.8 -466.8 115.7 -446.9 176.8 -426.8C237.9 -406.8 302.4 -386.6 344.2 -344.2C385.9 -301.8 405 -237.1 425 -176C445 -115 465.9 -57.5 486.7 0L0 0Z" fill="#8ee4af"></path></g></svg>