<svg id="visual" viewBox="0 0 900 600" width="900" height="600" xmlns="http://www.w3.org/2000/svg" xmlns:xlink="http://www.w3.org/1999/xlink" version="1.1"><rect x="0" y="0" width="900" height="600" fill="#8ee"></rect><defs><linearGradient id="grad1_0" x1="33.3%" y1="0%" x2="100%" y2="100%"><stop offset="20%" stop-color="#88eeee" stop-opacity="1"></stop><stop offset="80%" stop-color="#88eeee" stop-opacity="1"></stop></linearGradient></defs><defs><linearGradient id="grad2_0" x1="0%" y1="0%" x2="66.7%" y2="100%"><stop offset="20%" stop-color="#88eeee" stop-opacity="1"></stop><stop offset="80%" stop-color="#88eeee" stop-opacity="1"></stop></linearGradient></defs><g transform="translate(900, 0)"><path d="M0 486.7C-52.2 451.1 -104.4 415.5 -164.2 396.3C-223.9 377.2 -291.1 374.5 -342.2 342.2C-393.3 310 -428.3 248.2 -449.7 186.3C-471.1 124.3 -478.9 62.2 -486.7 0L0 0Z" fill="#379683"></path></g><g transform="translate(0, 600)"><path d="M0 -486.7C44.7 -438 89.4 -389.3 155 -374.2C220.6 -359.1 307.1 -377.6 344.2 -344.2C381.2 -310.7 368.8 -225.2 384.3 -159.2C399.8 -93.2 443.3 -46.6 486.7 0L0 0Z" fill="#379683"></path></g></svg>