<svg id="visual" viewBox="0 0 900 600" width="900" height="600" xmlns="http://www.w3.org/2000/svg" xmlns:xlink="http://www.w3.org/1999/xlink" version="1.1"><rect x="0" y="0" width="900" height="600" fill="#140021"></rect><path d="M0 382L129 382L129 360L257 360L257 377L386 377L386 369L514 369L514 259L643 259L643 360L771 360L771 352L900 352L900 265L900 601L900 601L771 601L771 601L643 601L643 601L514 601L514 601L386 601L386 601L257 601L257 601L129 601L129 601L0 601Z" fill="#8ee4af"></path><path d="M0 348L129 348L129 348L257 348L257 407L386 407L386 429L514 429L514 399L643 399L643 446L771 446L771 462L900 462L900 400L900 601L900 601L771 601L771 601L643 601L643 601L514 601L514 601L386 601L386 601L257 601L257 601L129 601L129 601L0 601Z" fill="#61bd9a"></path><path d="M0 495L129 495L129 529L257 529L257 443L386 443L386 466L514 466L514 537L643 537L643 526L771 526L771 470L900 470L900 490L900 601L900 601L771 601L771 601L643 601L643 601L514 601L514 601L386 601L386 601L257 601L257 601L129 601L129 601L0 601Z" fill="#379683"></path></svg>