<svg id="visual" viewBox="0 0 900 600" width="900" height="600" xmlns="http://www.w3.org/2000/svg" xmlns:xlink="http://www.w3.org/1999/xlink" version="1.1"><rect x="0" y="0" width="900" height="600" fill="#140021"></rect><path d="M0 306L129 306L129 324L257 324L257 371L386 371L386 250L514 250L514 323L643 323L643 315L771 315L771 269L900 269L900 253L900 601L900 601L771 601L771 601L643 601L643 601L514 601L514 601L386 601L386 601L257 601L257 601L129 601L129 601L0 601Z" fill="#8ee4af"></path><path d="M0 392L129 392L129 423L257 423L257 361L386 361L386 437L514 437L514 427L643 427L643 386L771 386L771 346L900 346L900 428L900 601L900 601L771 601L771 601L643 601L643 601L514 601L514 601L386 601L386 601L257 601L257 601L129 601L129 601L0 601Z" fill="#61bd9a"></path><path d="M0 501L129 501L129 493L257 493L257 442L386 442L386 520L514 520L514 449L643 449L643 490L771 490L771 503L900 503L900 479L900 601L900 601L771 601L771 601L643 601L643 601L514 601L514 601L386 601L386 601L257 601L257 601L129 601L129 601L0 601Z" fill="#379683"></path></svg>