<svg id="visual" viewBox="0 0 900 600" width="900" height="600" xmlns="http://www.w3.org/2000/svg" xmlns:xlink="http://www.w3.org/1999/xlink" version="1.1"><rect x="0" y="0" width="900" height="600" fill="#140021"></rect><path d="M0 312L129 312L129 348L257 348L257 348L386 348L386 296L514 296L514 271L643 271L643 288L771 288L771 358L900 358L900 349L900 601L900 601L771 601L771 601L643 601L643 601L514 601L514 601L386 601L386 601L257 601L257 601L129 601L129 601L0 601Z" fill="#8ee4af"></path><path d="M0 419L129 419L129 378L257 378L257 381L386 381L386 405L514 405L514 438L643 438L643 387L771 387L771 464L900 464L900 371L900 601L900 601L771 601L771 601L643 601L643 601L514 601L514 601L386 601L386 601L257 601L257 601L129 601L129 601L0 601Z" fill="#61bd9a"></path><path d="M0 494L129 494L129 471L257 471L257 508L386 508L386 474L514 474L514 443L643 443L643 463L771 463L771 497L900 497L900 499L900 601L900 601L771 601L771 601L643 601L643 601L514 601L514 601L386 601L386 601L257 601L257 601L129 601L129 601L0 601Z" fill="#379683"></path></svg>