<svg id="visual" viewBox="0 0 900 600" width="900" height="600" xmlns="http://www.w3.org/2000/svg" xmlns:xlink="http://www.w3.org/1999/xlink" version="1.1"><rect x="0" y="0" width="900" height="600" fill="#140021"></rect><path d="M0 307L129 307L129 291L257 291L257 341L386 341L386 371L514 371L514 321L643 321L643 272L771 272L771 270L900 270L900 261L900 601L900 601L771 601L771 601L643 601L643 601L514 601L514 601L386 601L386 601L257 601L257 601L129 601L129 601L0 601Z" fill="#8ee4af"></path><path d="M0 461L129 461L129 412L257 412L257 387L386 387L386 380L514 380L514 454L643 454L643 377L771 377L771 422L900 422L900 408L900 601L900 601L771 601L771 601L643 601L643 601L514 601L514 601L386 601L386 601L257 601L257 601L129 601L129 601L0 601Z" fill="#61bd9a"></path><path d="M0 529L129 529L129 512L257 512L257 541L386 541L386 523L514 523L514 482L643 482L643 473L771 473L771 474L900 474L900 452L900 601L900 601L771 601L771 601L643 601L643 601L514 601L514 601L386 601L386 601L257 601L257 601L129 601L129 601L0 601Z" fill="#379683"></path></svg>