<svg id="visual" viewBox="0 0 900 600" width="900" height="600" xmlns="http://www.w3.org/2000/svg" xmlns:xlink="http://www.w3.org/1999/xlink" version="1.1"><path d="M0 157L82 157L82 169L164 169L164 91L245 91L245 73L327 73L327 115L409 115L409 97L491 97L491 121L573 121L573 103L655 103L655 61L736 61L736 109L818 109L818 103L900 103L900 73L900 0L900 0L818 0L818 0L736 0L736 0L655 0L655 0L573 0L573 0L491 0L491 0L409 0L409 0L327 0L327 0L245 0L245 0L164 0L164 0L82 0L82 0L0 0Z" fill="#8ee4af"></path><path d="M0 361L82 361L82 355L164 355L164 319L245 319L245 385L327 385L327 253L409 253L409 271L491 271L491 313L573 313L573 247L655 247L655 175L736 175L736 331L818 331L818 247L900 247L900 187L900 71L900 101L818 101L818 107L736 107L736 59L655 59L655 101L573 101L573 119L491 119L491 95L409 95L409 113L327 113L327 71L245 71L245 89L164 89L164 167L82 167L82 155L0 155Z" fill="#77d0a5"></path><path d="M0 421L82 421L82 397L164 397L164 379L245 379L245 433L327 433L327 355L409 355L409 343L491 343L491 403L573 403L573 325L655 325L655 307L736 307L736 403L818 403L818 361L900 361L900 289L900 185L900 245L818 245L818 329L736 329L736 173L655 173L655 245L573 245L573 311L491 311L491 269L409 269L409 251L327 251L327 383L245 383L245 317L164 317L164 353L82 353L82 359L0 359Z" fill="#61bd9a"></path><path d="M0 517L82 517L82 517L164 517L164 559L245 559L245 559L327 559L327 505L409 505L409 499L491 499L491 565L573 565L573 541L655 541L655 553L736 553L736 565L818 565L818 517L900 517L900 529L900 287L900 359L818 359L818 401L736 401L736 305L655 305L655 323L573 323L573 401L491 401L491 341L409 341L409 353L327 353L327 431L245 431L245 377L164 377L164 395L82 395L82 419L0 419Z" fill="#4ca98f"></path><path d="M0 601L82 601L82 601L164 601L164 601L245 601L245 601L327 601L327 601L409 601L409 601L491 601L491 601L573 601L573 601L655 601L655 601L736 601L736 601L818 601L818 601L900 601L900 601L900 527L900 515L818 515L818 563L736 563L736 551L655 551L655 539L573 539L573 563L491 563L491 497L409 497L409 503L327 503L327 557L245 557L245 557L164 557L164 515L82 515L82 515L0 515Z" fill="#379683"></path></svg>