<svg id="visual" viewBox="0 0 900 600" width="900" height="600" xmlns="http://www.w3.org/2000/svg" xmlns:xlink="http://www.w3.org/1999/xlink" version="1.1"><path d="M0 211L82 79L164 187L245 91L327 139L409 169L491 97L573 187L655 181L736 193L818 145L900 115L900 0L818 0L736 0L655 0L573 0L491 0L409 0L327 0L245 0L164 0L82 0L0 0Z" fill="#00cc8e"></path><path d="M0 385L82 319L164 295L245 373L327 307L409 307L491 289L573 313L655 373L736 421L818 295L900 379L900 113L818 143L736 191L655 179L573 185L491 95L409 167L327 137L245 89L164 185L82 77L0 209Z" fill="#00b98a"></path><path d="M0 421L82 409L164 385L245 457L327 409L409 385L491 361L573 409L655 427L736 487L818 367L900 421L900 377L818 293L736 419L655 371L573 311L491 287L409 305L327 305L245 371L164 293L82 317L0 383Z" fill="#00a784"></path><path d="M0 523L82 547L164 481L245 505L327 493L409 505L491 523L573 541L655 517L736 553L818 475L900 535L900 419L818 365L736 485L655 425L573 407L491 359L409 383L327 407L245 455L164 383L82 407L0 419Z" fill="#00957c"></path><path d="M0 601L82 601L164 601L245 601L327 601L409 601L491 601L573 601L655 601L736 601L818 601L900 601L900 533L818 473L736 551L655 515L573 539L491 521L409 503L327 491L245 503L164 479L82 545L0 521Z" fill="#038373"></path></svg>