<svg id="visual" viewBox="0 0 900 600" width="900" height="600" xmlns="http://www.w3.org/2000/svg" xmlns:xlink="http://www.w3.org/1999/xlink" version="1.1"><path d="M0 43L82 43L82 103L164 103L164 67L245 67L245 91L327 91L327 97L409 97L409 85L491 85L491 85L573 85L573 121L655 121L655 73L736 73L736 121L818 121L818 109L900 109L900 97L900 0L900 0L818 0L818 0L736 0L736 0L655 0L655 0L573 0L573 0L491 0L491 0L409 0L409 0L327 0L327 0L245 0L245 0L164 0L164 0L82 0L82 0L0 0Z" fill="#8ee4af"></path><path d="M0 169L82 169L82 325L164 325L164 319L245 319L245 319L327 319L327 229L409 229L409 157L491 157L491 289L573 289L573 235L655 235L655 175L736 175L736 235L818 235L818 253L900 253L900 385L900 95L900 107L818 107L818 119L736 119L736 71L655 71L655 119L573 119L573 83L491 83L491 83L409 83L409 95L327 95L327 89L245 89L245 65L164 65L164 101L82 101L82 41L0 41Z" fill="#77d0a5"></path><path d="M0 373L82 373L82 433L164 433L164 475L245 475L245 493L327 493L327 403L409 403L409 367L491 367L491 481L573 481L573 391L655 391L655 409L736 409L736 409L818 409L818 457L900 457L900 493L900 383L900 251L818 251L818 233L736 233L736 173L655 173L655 233L573 233L573 287L491 287L491 155L409 155L409 227L327 227L327 317L245 317L245 317L164 317L164 323L82 323L82 167L0 167Z" fill="#61bd9a"></path><path d="M0 457L82 457L82 499L164 499L164 535L245 535L245 541L327 541L327 457L409 457L409 457L491 457L491 541L573 541L573 451L655 451L655 457L736 457L736 463L818 463L818 535L900 535L900 529L900 491L900 455L818 455L818 407L736 407L736 407L655 407L655 389L573 389L573 479L491 479L491 365L409 365L409 401L327 401L327 491L245 491L245 473L164 473L164 431L82 431L82 371L0 371Z" fill="#4ca98f"></path><path d="M0 601L82 601L82 601L164 601L164 601L245 601L245 601L327 601L327 601L409 601L409 601L491 601L491 601L573 601L573 601L655 601L655 601L736 601L736 601L818 601L818 601L900 601L900 601L900 527L900 533L818 533L818 461L736 461L736 455L655 455L655 449L573 449L573 539L491 539L491 455L409 455L409 455L327 455L327 539L245 539L245 533L164 533L164 497L82 497L82 455L0 455Z" fill="#379683"></path></svg>