<svg id="visual" viewBox="0 0 900 600" width="900" height="600" xmlns="http://www.w3.org/2000/svg" xmlns:xlink="http://www.w3.org/1999/xlink" version="1.1"><path d="M0 151L82 109L164 145L245 103L327 67L409 91L491 103L573 121L655 133L736 67L818 163L900 85L900 0L818 0L736 0L655 0L573 0L491 0L409 0L327 0L245 0L164 0L82 0L0 0Z" fill="#00cc8e"></path><path d="M0 217L82 169L164 223L245 181L327 139L409 163L491 175L573 181L655 199L736 121L818 229L900 121L900 83L818 161L736 65L655 131L573 119L491 101L409 89L327 65L245 101L164 143L82 107L0 149Z" fill="#00b98a"></path><path d="M0 319L82 451L164 313L245 301L327 439L409 403L491 277L573 349L655 409L736 307L818 313L900 319L900 119L818 227L736 119L655 197L573 179L491 173L409 161L327 137L245 179L164 221L82 167L0 215Z" fill="#00a784"></path><path d="M0 397L82 499L164 361L245 367L327 493L409 451L491 385L573 397L655 523L736 391L818 361L900 367L900 317L818 311L736 305L655 407L573 347L491 275L409 401L327 437L245 299L164 311L82 449L0 317Z" fill="#00957c"></path><path d="M0 601L82 601L164 601L245 601L327 601L409 601L491 601L573 601L655 601L736 601L818 601L900 601L900 365L818 359L736 389L655 521L573 395L491 383L409 449L327 491L245 365L164 359L82 497L0 395Z" fill="#038373"></path></svg>