<svg id="visual" viewBox="0 0 900 600" width="900" height="600" xmlns="http://www.w3.org/2000/svg" xmlns:xlink="http://www.w3.org/1999/xlink" version="1.1"><path d="M0 187L82 187L82 157L164 157L164 223L245 223L245 211L327 211L327 193L409 193L409 145L491 145L491 157L573 157L573 169L655 169L655 121L736 121L736 169L818 169L818 187L900 187L900 169L900 0L900 0L818 0L818 0L736 0L736 0L655 0L655 0L573 0L573 0L491 0L491 0L409 0L409 0L327 0L327 0L245 0L245 0L164 0L164 0L82 0L82 0L0 0Z" fill="#8ee4af"></path><path d="M0 283L82 283L82 211L164 211L164 331L245 331L245 289L327 289L327 277L409 277L409 235L491 235L491 247L573 247L573 229L655 229L655 199L736 199L736 259L818 259L818 307L900 307L900 247L900 167L900 185L818 185L818 167L736 167L736 119L655 119L655 167L573 167L573 155L491 155L491 143L409 143L409 191L327 191L327 209L245 209L245 221L164 221L164 155L82 155L82 185L0 185Z" fill="#77d0a5"></path><path d="M0 469L82 469L82 373L164 373L164 415L245 415L245 433L327 433L327 391L409 391L409 391L491 391L491 421L573 421L573 481L655 481L655 451L736 451L736 463L818 463L818 421L900 421L900 391L900 245L900 305L818 305L818 257L736 257L736 197L655 197L655 227L573 227L573 245L491 245L491 233L409 233L409 275L327 275L327 287L245 287L245 329L164 329L164 209L82 209L82 281L0 281Z" fill="#61bd9a"></path><path d="M0 547L82 547L82 505L164 505L164 541L245 541L245 529L327 529L327 511L409 511L409 541L491 541L491 559L573 559L573 547L655 547L655 523L736 523L736 541L818 541L818 547L900 547L900 517L900 389L900 419L818 419L818 461L736 461L736 449L655 449L655 479L573 479L573 419L491 419L491 389L409 389L409 389L327 389L327 431L245 431L245 413L164 413L164 371L82 371L82 467L0 467Z" fill="#4ca98f"></path><path d="M0 601L82 601L82 601L164 601L164 601L245 601L245 601L327 601L327 601L409 601L409 601L491 601L491 601L573 601L573 601L655 601L655 601L736 601L736 601L818 601L818 601L900 601L900 601L900 515L900 545L818 545L818 539L736 539L736 521L655 521L655 545L573 545L573 557L491 557L491 539L409 539L409 509L327 509L327 527L245 527L245 539L164 539L164 503L82 503L82 545L0 545Z" fill="#379683"></path></svg>