<svg id="visual" viewBox="0 0 900 600" width="900" height="600" xmlns="http://www.w3.org/2000/svg" xmlns:xlink="http://www.w3.org/1999/xlink" version="1.1"><path d="M0 115L82 199L164 121L245 121L327 91L409 169L491 175L573 145L655 127L736 109L818 193L900 115L900 0L818 0L736 0L655 0L573 0L491 0L409 0L327 0L245 0L164 0L82 0L0 0Z" fill="#00cc8e"></path><path d="M0 163L82 259L164 175L245 205L327 151L409 205L491 235L573 229L655 211L736 193L818 289L900 169L900 113L818 191L736 107L655 125L573 143L491 173L409 167L327 89L245 119L164 119L82 197L0 113Z" fill="#00b98a"></path><path d="M0 319L82 421L164 331L245 289L327 247L409 307L491 295L573 373L655 355L736 325L818 427L900 313L900 167L818 287L736 191L655 209L573 227L491 233L409 203L327 149L245 203L164 173L82 257L0 161Z" fill="#00a784"></path><path d="M0 523L82 517L164 487L245 517L327 475L409 469L491 511L573 535L655 559L736 529L818 517L900 505L900 311L818 425L736 323L655 353L573 371L491 293L409 305L327 245L245 287L164 329L82 419L0 317Z" fill="#00957c"></path><path d="M0 601L82 601L164 601L245 601L327 601L409 601L491 601L573 601L655 601L736 601L818 601L900 601L900 503L818 515L736 527L655 557L573 533L491 509L409 467L327 473L245 515L164 485L82 515L0 521Z" fill="#038373"></path></svg>