<svg id="visual" viewBox="0 0 900 600" width="900" height="600" xmlns="http://www.w3.org/2000/svg" xmlns:xlink="http://www.w3.org/1999/xlink" version="1.1"><rect x="0" y="0" width="900" height="600" fill="#8ee4af"></rect><path d="M0 452L21.5 441.2C43 430.3 86 408.7 128.8 411C171.7 413.3 214.3 439.7 257.2 460.3C300 481 343 496 385.8 503.5C428.7 511 471.3 511 514.2 500.8C557 490.7 600 470.3 642.8 455.8C685.7 441.3 728.3 432.7 771.2 421.5C814 410.3 857 396.7 878.5 389.8L900 383L900 601L878.5 601C857 601 814 601 771.2 601C728.3 601 685.7 601 642.8 601C600 601 557 601 514.2 601C471.3 601 428.7 601 385.8 601C343 601 300 601 257.2 601C214.3 601 171.7 601 128.8 601C86 601 43 601 21.5 601L0 601Z" fill="#5cdb95" stroke-linecap="round" stroke-linejoin="miter"></path></svg>