<svg id="visual" viewBox="0 0 900 600" width="900" height="600" xmlns="http://www.w3.org/2000/svg" xmlns:xlink="http://www.w3.org/1999/xlink" version="1.1"><rect x="0" y="0" width="900" height="600" fill="#002233"></rect><path d="M0 479L21.5 474C43 469 86 459 128.8 450.3C171.7 441.7 214.3 434.3 257.2 425.2C300 416 343 405 385.8 415.8C428.7 426.7 471.3 459.3 514.2 477.8C557 496.3 600 500.7 642.8 486C685.7 471.3 728.3 437.7 771.2 416.2C814 394.7 857 385.3 878.5 380.7L900 376L900 601L878.5 601C857 601 814 601 771.2 601C728.3 601 685.7 601 642.8 601C600 601 557 601 514.2 601C471.3 601 428.7 601 385.8 601C343 601 300 601 257.2 601C214.3 601 171.7 601 128.8 601C86 601 43 601 21.5 601L0 601Z" fill="#0066FF" stroke-linecap="round" stroke-linejoin="miter"></path></svg>