<svg id="visual" viewBox="0 0 900 600" width="900" height="600" xmlns="http://www.w3.org/2000/svg" xmlns:xlink="http://www.w3.org/1999/xlink" version="1.1"><rect x="0" y="0" width="900" height="600" fill="#8ee4af"></rect><path d="M0 461L21.5 452.2C43 443.3 86 425.7 128.8 411.7C171.7 397.7 214.3 387.3 257.2 384C300 380.7 343 384.3 385.8 391.2C428.7 398 471.3 408 514.2 415.2C557 422.3 600 426.7 642.8 438.2C685.7 449.7 728.3 468.3 771.2 467.7C814 467 857 447 878.5 437L900 427L900 601L878.5 601C857 601 814 601 771.2 601C728.3 601 685.7 601 642.8 601C600 601 557 601 514.2 601C471.3 601 428.7 601 385.8 601C343 601 300 601 257.2 601C214.3 601 171.7 601 128.8 601C86 601 43 601 21.5 601L0 601Z" fill="#5cdb95" stroke-linecap="round" stroke-linejoin="miter"></path></svg>