<svg id="visual" viewBox="0 0 900 600" width="900" height="600" xmlns="http://www.w3.org/2000/svg" xmlns:xlink="http://www.w3.org/1999/xlink" version="1.1"><rect x="0" y="0" width="900" height="600" fill="#002233"></rect><path d="M0 490L129 490L129 438L257 438L257 405L386 405L386 429L514 429L514 375L643 375L643 453L771 453L771 397L900 397L900 411L900 601L900 601L771 601L771 601L643 601L643 601L514 601L514 601L386 601L386 601L257 601L257 601L129 601L129 601L0 601Z" fill="#0066FF" stroke-linecap="square" stroke-linejoin="miter"></path></svg>