<svg id="visual" viewBox="0 0 900 600" width="900" height="600" xmlns="http://www.w3.org/2000/svg" xmlns:xlink="http://www.w3.org/1999/xlink" version="1.1"><rect x="0" y="0" width="900" height="600" fill="#002233"></rect><path d="M0 388L21.5 409.3C43 430.7 86 473.3 128.8 494.7C171.7 516 214.3 516 257.2 514C300 512 343 508 385.8 496.8C428.7 485.7 471.3 467.3 514.2 466.3C557 465.3 600 481.7 642.8 488.2C685.7 494.7 728.3 491.3 771.2 481C814 470.7 857 453.3 878.5 444.7L900 436L900 601L878.5 601C857 601 814 601 771.2 601C728.3 601 685.7 601 642.8 601C600 601 557 601 514.2 601C471.3 601 428.7 601 385.8 601C343 601 300 601 257.2 601C214.3 601 171.7 601 128.8 601C86 601 43 601 21.5 601L0 601Z" fill="#0066FF" stroke-linecap="round" stroke-linejoin="miter"></path></svg>