<svg width="800" height="800" viewBox="0 0 64 64" fill="none" xmlns="http://www.w3.org/2000/svg"><path d="M48.86 5.627H21.89a6.5 6.5 0 0 0-6.49 6.49v13.48h7.98a5.97 5.97 0 0 1 1.75-4.19 6.011 6.011 0 0 1 8.49-.03l5.99 5.96c.01.01.01.01.01.02a5.99 5.99 0 0 1 1.11 1.54l.007.015a5.39 5.39 0 0 0 .014.03c.056.1.1.213.145.32a5.374 5.374 0 0 1 .014.027c.022.053.052.1.072.158.05.13.09.25.13.38.181.572.272 1.17.27 1.77 0 .586-.087 1.17-.26 1.73a3.576 3.576 0 0 1-.19.55 5.121 5.121 0 0 1-.25.53 5.1 5.1 0 0 1-.3.5c-.22.336-.474.648-.76.93l-5.98 6.01a5.984 5.984 0 0 1-4.26 1.77 5.987 5.987 0 0 1-4.23-1.74 6.021 6.021 0 0 1-1.77-4.24v-.04h-7.98v13.47a6.5 6.5 0 0 0 6.49 6.5h26.97a6.5 6.5 0 0 0 6.49-6.5v-38.95a6.5 6.5 0 0 0-6.492-6.49Z" fill="#999"/><path d="M15.4 33.601h15.167l-2.1 2.118-.493.5c-.034.034-.058.074-.089.11a2.09 2.09 0 0 0-.159.195c-.025.038-.042.08-.065.119-.045.074-.085.15-.12.23-.012.029-.017.059-.028.089-.036.093-.064.19-.084.287v.033c-.02.107-.033.215-.037.324h.007a1.987 1.987 0 0 0 .587 1.441 1.99 1.99 0 0 0 1.41.582 1.987 1.987 0 0 0 1.418-.59l5.987-6.02c.016-.015.026-.034.041-.05.073-.078.14-.161.2-.25.025-.038.042-.079.064-.118.045-.072.085-.148.12-.226.021-.05.032-.1.049-.156.026-.071.047-.144.065-.217.016-.094.025-.189.028-.284 0-.037.011-.072.011-.109v-.006a1.97 1.97 0 0 0-.15-.752v-.013a2.015 2.015 0 0 0-.178-.33l-.007-.014a2.06 2.06 0 0 0-.249-.3l-5.993-5.959a2 2 0 0 0-2.828.008 1.99 1.99 0 0 0-.578 1.371h-.008v.04c.005.097.015.193.032.288 0 .035 0 .07.012.105.012.035.014.044.02.066.025.106.058.21.1.311.006.015.016.028.023.043a2.006 2.006 0 0 0 .407.607l2.557 2.538H11.41a2 2 0 1 0 0 4h3.992l-.002-.011Z" fill="#000"/></svg>